# xmcd
#
# Track frame offsets: 
#        150
#        23434
#        51775
#        75434
#        98918
#        125079
#        131289
#        156796
#        183246
#        205003
#        240259
#        257386
#
# Disc length: 3729 seconds
#
# Revision: 0
# Processed by: cddbd v1.5.2PL0 Copyright (c) Steve Scherf et al.
# Submitted via: ExactAudioCopy v0.99pb4
#
DISCID=850e8f0c
DTITLE=Tommye Young-West - Believe
DYEAR=2000
DGENRE=R&B
TTITLE0=All 'n All
TTITLE1=Glory To His Name
TTITLE2=Believe
TTITLE3=No Greater Love
TTITLE4=My Mind Is Made Up
TTITLE5=Big Band (Reprise)
TTITLE6=He'll Make A Way
TTITLE7=Highest Praise
TTITLE8=Greater Is He
TTITLE9=He Never Left Me
TTITLE10=You Are Welcome
TTITLE11=There All The Time
EXTD=
EXTT0=
EXTT1=
EXTT2=
EXTT3=
EXTT4=
EXTT5=
EXTT6=
EXTT7=
EXTT8=
EXTT9=
EXTT10=
EXTT11=
PLAYORDER=
